<svg width="94" height="48" viewBox="0 0 94 48" fill="none" xmlns="http://www.w3.org/2000/svg">
<path d="M31.0971 31.9165H27.0703V47.7167H31.0971V31.9165Z" fill="#00A0DF"/>
<path d="M63.5694 36.4482C62.532 35.8882 61.3686 35.5963 60.1869 35.5995C57.5766 35.5995 55.7713 37.4015 55.7713 39.8155C55.7713 42.1614 57.5024 44.0314 60.1869 44.0314C61.3667 44.0334 62.5287 43.7465 63.5694 43.1964V47.4368C62.3804 47.8002 61.1442 47.9899 59.8998 47.9998C55.366 47.9998 51.3955 44.9072 51.3955 39.8155C51.3955 35.095 54.9937 31.6406 59.8998 31.6406C61.1447 31.6439 62.3819 31.8337 63.5694 32.2037V36.4482Z" fill="#00A0DF"/>
<path d="M21.5348 36.4482C20.4975 35.889 19.3348 35.5972 18.1537 35.5995C15.5434 35.5995 13.7367 37.4015 13.7367 39.8155C13.7367 42.1614 15.465 44.0314 18.1537 44.0314C19.3329 44.0323 20.4942 43.7455 21.5348 43.1964V47.4368C20.3427 47.8013 19.1032 47.991 17.8556 47.9998C13.3342 47.9998 9.3623 44.9072 9.3623 39.8155C9.3623 35.095 12.9577 31.6406 17.8556 31.6406C19.1036 31.6437 20.3441 31.8335 21.5348 32.2037V36.4482Z" fill="#00A0DF"/>
<path d="M84.6775 39.8156C84.6775 44.3348 81.1535 47.9999 76.2474 47.9999C71.3414 47.9999 67.8174 44.328 67.8174 39.8156C67.8174 35.3032 71.3372 31.6421 76.2474 31.6421C81.1577 31.6421 84.6775 35.3018 84.6775 39.8156ZM76.2474 35.6608C73.8555 35.6608 72.0791 37.524 72.0791 39.8156C72.0791 42.1071 73.8555 43.9771 76.2474 43.9771C78.6394 43.9771 80.4158 42.1166 80.4158 39.8156C80.4158 37.5145 78.6297 35.6608 76.2474 35.6608Z" fill="#00A0DF"/>
<path d="M46.3803 35.5097C46.3226 35.4907 44.6203 35.0255 43.2327 35.0255C41.6157 35.0255 40.7419 35.5627 40.7419 36.3243C40.7419 37.2763 41.9262 37.619 42.5856 37.8271L43.6971 38.178C46.3074 38.994 47.5013 40.7714 47.5013 42.6945C47.5013 46.667 43.9732 47.9984 40.8917 47.9984C39.4312 47.9849 37.9749 47.8411 36.5406 47.5686V43.9307C36.8951 44.0177 38.5835 44.5168 40.3435 44.5168C42.3507 44.5168 43.2698 43.9388 43.2698 43.0385C43.2698 42.2402 42.4716 41.7806 41.4838 41.4718C41.2351 41.3902 40.8683 41.276 40.6182 41.193C38.3816 40.494 36.5049 39.1884 36.5049 36.5691C36.5049 33.6152 38.7402 31.627 42.4565 31.627C43.7797 31.6451 45.0963 31.8144 46.3803 32.1315V35.5097Z" fill="#00A0DF"/>
<path d="M5.09056 14.9372C5.09056 14.412 4.87981 13.9083 4.50467 13.537C4.12953 13.1657 3.62073 12.957 3.0902 12.957C2.55967 12.957 2.05087 13.1657 1.67573 13.537C1.3006 13.9083 1.08984 14.412 1.08984 14.9372L1.08984 19.0837C1.08984 19.6089 1.3006 20.1126 1.67573 20.4839C2.05087 20.8552 2.55967 21.0639 3.0902 21.0639C3.62073 21.0639 4.12953 20.8552 4.50467 20.4839C4.87981 20.1126 5.09056 19.6089 5.09056 19.0837V14.9372Z" fill="#00A0DF"/>
<path d="M16.0736 9.49465C16.0599 8.97865 15.8432 8.48832 15.4697 8.12815C15.0962 7.76797 14.5953 7.56641 14.0739 7.56641C13.5524 7.56641 13.0516 7.76797 12.6781 8.12815C12.3046 8.48832 12.0879 8.97865 12.0742 9.49465V19.0852C12.0879 19.6012 12.3046 20.0915 12.6781 20.4517C13.0516 20.8119 13.5524 21.0135 14.0739 21.0135C14.5953 21.0135 15.0962 20.8119 15.4697 20.4517C15.8432 20.0915 16.0599 19.6012 16.0736 19.0852V9.49465Z" fill="#00A0DF"/>
<path d="M27.0585 2.04615C27.0585 1.52135 26.8479 1.01804 26.473 0.646951C26.0981 0.27586 25.5897 0.0673828 25.0595 0.0673828C24.5294 0.0673828 24.0209 0.27586 23.646 0.646951C23.2712 1.01804 23.0605 1.52135 23.0605 2.04615V23.0265C23.0605 23.5513 23.2712 24.0547 23.646 24.4257C24.0209 24.7968 24.5294 25.0053 25.0595 25.0053C25.5897 25.0053 26.0981 24.7968 26.473 24.4257C26.8479 24.0547 27.0585 23.5513 27.0585 23.0265V2.04615Z" fill="#00A0DF"/>
<path d="M38.0483 9.49428C38.0347 8.97864 37.8182 8.48866 37.4449 8.12873C37.0716 7.7688 36.5711 7.56738 36.0501 7.56738C35.529 7.56738 35.0285 7.7688 34.6552 8.12873C34.2819 8.48866 34.0654 8.97864 34.0518 9.49428V19.0848C34.0654 19.6005 34.2819 20.0905 34.6552 20.4504C35.0285 20.8103 35.529 21.0117 36.0501 21.0117C36.5711 21.0117 37.0716 20.8103 37.4449 20.4504C37.8182 20.0905 38.0347 19.6005 38.0483 19.0848V9.49428Z" fill="#00A0DF"/>
<path d="M49.0119 14.9382C48.9928 14.4278 48.7745 13.9447 48.403 13.5904C48.0315 13.2361 47.5357 13.0381 47.0198 13.0381C46.504 13.0381 46.0082 13.2361 45.6367 13.5904C45.2652 13.9447 45.0469 14.4278 45.0277 14.9382V19.0847C45.0178 19.3499 45.062 19.6143 45.1576 19.8621C45.2532 20.1099 45.3984 20.3361 45.5843 20.5272C45.7703 20.7183 45.9933 20.8702 46.2399 20.974C46.4866 21.0778 46.7518 21.1313 47.0198 21.1313C47.2879 21.1313 47.5531 21.0778 47.7998 20.974C48.0464 20.8702 48.2694 20.7183 48.4554 20.5272C48.6413 20.3361 48.7865 20.1099 48.8821 19.8621C48.9777 19.6143 49.0219 19.3499 49.0119 19.0847V14.9382Z" fill="#00A0DF"/>
<path d="M60.0084 9.49431C60.0227 9.22664 59.9817 8.9589 59.888 8.70741C59.7943 8.45593 59.6498 8.22596 59.4634 8.03151C59.2771 7.83707 59.0526 7.68222 58.8039 7.5764C58.5551 7.47059 58.2871 7.41602 58.0163 7.41602C57.7456 7.41602 57.4776 7.47059 57.2288 7.5764C56.98 7.68222 56.7556 7.83707 56.5692 8.03151C56.3829 8.22596 56.2384 8.45593 56.1447 8.70741C56.051 8.9589 56.01 9.22664 56.0242 9.49431V19.0849C56.01 19.3526 56.051 19.6203 56.1447 19.8718C56.2384 20.1233 56.3829 20.3532 56.5692 20.5477C56.7556 20.7421 56.98 20.897 57.2288 21.0028C57.4776 21.1086 57.7456 21.1632 58.0163 21.1632C58.2871 21.1632 58.5551 21.1086 58.8039 21.0028C59.0526 20.897 59.2771 20.7421 59.4634 20.5477C59.6498 20.3532 59.7943 20.1233 59.888 19.8718C59.9817 19.6203 60.0227 19.3526 60.0084 19.0849V9.49431Z" fill="#00A0DF"/>
<path d="M70.9934 2.04658C71.0033 1.78145 70.9592 1.51707 70.8635 1.26922C70.7679 1.02138 70.6228 0.795168 70.4368 0.604117C70.2508 0.413066 70.0279 0.261098 69.7812 0.157299C69.5346 0.0534991 69.2693 0 69.0013 0C68.7333 0 68.468 0.0534991 68.2214 0.157299C67.9747 0.261098 67.7517 0.413066 67.5658 0.604117C67.3798 0.795168 67.2347 1.02138 67.139 1.26922C67.0434 1.51707 66.9992 1.78145 67.0092 2.04658V23.027C66.9992 23.2921 67.0434 23.5565 67.139 23.8043C67.2347 24.0522 67.3798 24.2784 67.5658 24.4694C67.7517 24.6605 67.9747 24.8124 68.2214 24.9162C68.468 25.02 68.7333 25.0735 69.0013 25.0735C69.2693 25.0735 69.5346 25.02 69.7812 24.9162C70.0279 24.8124 70.2508 24.6605 70.4368 24.4694C70.6228 24.2784 70.7679 24.0522 70.8635 23.8043C70.9592 23.5565 71.0033 23.2921 70.9934 23.027V2.04658Z" fill="#00A0DF"/>
<path d="M81.981 9.49415C81.9673 8.97672 81.7501 8.48504 81.3755 8.12385C81.001 7.76267 80.4988 7.56055 79.9759 7.56055C79.453 7.56055 78.9507 7.76267 78.5762 8.12385C78.2016 8.48504 77.9844 8.97672 77.9707 9.49415V19.0847C77.9844 19.6022 78.2016 20.0938 78.5762 20.455C78.9507 20.8162 79.453 21.0183 79.9759 21.0183C80.4988 21.0183 81.001 20.8162 81.3755 20.455C81.7501 20.0938 81.9673 19.6022 81.981 19.0847V9.49415Z" fill="#00A0DF"/>
<path d="M92.9466 14.9382C92.9274 14.4278 92.7092 13.9447 92.3377 13.5904C91.9662 13.2361 91.4703 13.0381 90.9544 13.0381C90.4385 13.0381 89.9427 13.2361 89.5712 13.5904C89.1997 13.9447 88.9815 14.4278 88.9623 14.9382V19.0847C88.9524 19.3499 88.9965 19.6143 89.0922 19.8621C89.1878 20.1099 89.3329 20.3361 89.5189 20.5272C89.7049 20.7183 89.9278 20.8702 90.1745 20.974C90.4212 21.0778 90.6864 21.1313 90.9544 21.1313C91.2225 21.1313 91.4877 21.0778 91.7344 20.974C91.9811 20.8702 92.204 20.7183 92.39 20.5272C92.576 20.3361 92.7211 20.1099 92.8167 19.8621C92.9124 19.6143 92.9565 19.3499 92.9466 19.0847V14.9382Z" fill="#00A0DF"/>
<path d="M90.6429 45.6372V45.8834H89.9368V47.718H89.6386V45.8834H88.9229V45.6372H90.6429Z" fill="#00A0DF"/>
<path d="M90.792 45.6372H91.2495L91.8774 47.3399H91.8925L92.5011 45.6372H92.949V47.718H92.6467V46.0153H92.6385L91.9983 47.718H91.718L91.0956 46.0153H91.0888V47.718H90.792V45.6372Z" fill="#00A0DF"/>
</svg>
