<svg width="48" height="48" viewBox="0 0 48 48" fill="none" xmlns="http://www.w3.org/2000/svg">
<path d="M24 48C23.7611 48 23.5233 48 23.2867 47.9889L28.1911 34.5089H34.9411C36.1267 34.5089 37.4267 33.5978 37.83 32.4856L43.1511 17.8689C44.0211 15.4767 42.6511 13.5189 40.1044 13.5189H30.7422L22.8889 35.1111L18.4278 47.3489C7.86 44.8356 0 35.3333 0 24C0 12.9911 7.41333 3.71333 17.52 0.888889L12.9244 13.5222L5.28222 34.5089H10.3689L16.8667 16.6733H20.6889L14.1911 34.51H19.2756L25.3333 17.8689C26.2044 15.4767 24.8333 13.5189 22.29 13.5189H18.0122L22.9211 0.0255556C23.2789 0.00851852 23.6385 0 24 0C37.2544 0 48 10.7456 48 24C48 37.2544 37.2544 48 24 48ZM38.5211 16.66H34.7L29.3478 31.3444H33.17L38.5211 16.66Z" fill="#0096D6"/>
</svg>
